# xmcd CD database file
#
# Track frame offsets:
#	150
#	22772
#	39560
#
# Disc length: 828 seconds
#
# Revision: 0
# Processed by: cddbd v1.5.1PL0 Copyright (c) Steve Scherf et al.
# Submitted via: CDex 1.51
#
DISCID=16033a03
DTITLE=Riding - 風を追いかけて -J’S THEME 1994-
DYEAR=1994
DGENRE=JPop
TTITLE0=風を追いかけて -J’S THEME 1994-
TTITLE1=恋が揺れている夏
TTITLE2=風を追いかけて -J’S THEME 1994- inst
EXTD=YEAR: 1994
EXTT0=
EXTT1=
EXTT2=
PLAYORDER=
